<svg width="246" height="17" viewBox="0 0 246 17" fill="none" xmlns="http://www.w3.org/2000/svg">
<path d="M7.63933 7.61909L3.17715 0H0L6.09758 11.0242V16.2109H9.22825V10.9079L15.1836 0H12.03L7.63933 7.61909Z" fill="#161616"/>
<path d="M26.2531 0L19.0807 16.2109H22.3287L23.7767 12.7845H31.7651L33.2138 16.2109H36.5776L29.4996 0H26.2531ZM24.898 10.1196L27.7941 3.3122L30.6438 10.1196H24.898Z" fill="#161616"/>
<path d="M54.8549 1.45971C53.7253 0.487027 52.1336 0 50.077 0H43.3737V16.2109H46.5044V11.4396H50.077C52.1336 11.4396 53.7253 10.9278 54.8549 9.90082C55.9838 8.8738 56.5472 7.43473 56.5472 5.58224C56.5479 3.8061 55.9838 2.43238 54.8549 1.45971ZM52.636 7.94377C52.0046 8.45281 51.0977 8.70802 49.914 8.70802H46.5044V2.7096H49.914C51.0977 2.7096 52.0046 2.95656 52.636 3.45046C53.2667 3.94506 53.581 4.68592 53.581 5.67442C53.5817 6.67805 53.2667 7.43404 52.636 7.94377Z" fill="#161616"/>
<path d="M66.5468 0H63.4168V16.2102H66.5468V0Z" fill="#161616"/>
<path d="M78.4583 0H75.3297V16.2109H85.5127V13.4084H78.4583V0Z" fill="#161616"/>
<path d="M101.241 0L96.8498 7.61909L92.3877 0H89.2119L95.3088 11.0242V16.2109H98.4387V10.9086L104.395 0H101.241Z" fill="#161616"/>
<path d="M119.634 16.4835C118.076 16.4835 116.664 16.1325 115.399 15.4304C114.149 14.7131 113.164 13.7287 112.443 12.4771C111.737 11.2256 111.384 9.81382 111.384 8.24177C111.384 6.66973 111.745 5.25795 112.465 4.00642C113.186 2.75489 114.171 1.77809 115.421 1.07601C116.686 0.35867 118.098 0 119.656 0C120.921 0 122.076 0.228938 123.12 0.686815C124.164 1.14469 125.046 1.80861 125.767 2.67858L123.914 4.48719C122.796 3.23566 121.421 2.6099 119.789 2.6099C118.73 2.6099 117.781 2.8541 116.943 3.3425C116.105 3.81564 115.451 4.47956 114.98 5.33426C114.509 6.18896 114.274 7.15813 114.274 8.24177C114.274 9.32541 114.509 10.2946 114.98 11.1493C115.451 12.004 116.105 12.6755 116.943 13.1639C117.781 13.6371 118.73 13.8737 119.789 13.8737C121.421 13.8737 122.796 13.2403 123.914 11.9735L125.767 13.805C125.046 14.6749 124.156 15.3389 123.098 15.7967C122.054 16.2546 120.899 16.4835 119.634 16.4835Z" fill="#4D5866"/>
<path d="M139.044 16.4835C137.471 16.4835 136.052 16.1325 134.787 15.4304C133.522 14.7131 132.53 13.7287 131.809 12.4771C131.088 11.2103 130.728 9.79855 130.728 8.24177C130.728 6.68499 131.088 5.28084 131.809 4.02931C132.53 2.76252 133.522 1.77809 134.787 1.07601C136.052 0.35867 137.471 0 139.044 0C140.618 0 142.037 0.35867 143.302 1.07601C144.566 1.77809 145.559 2.75489 146.28 4.00642C147 5.25795 147.36 6.66973 147.36 8.24177C147.36 9.81382 147 11.2256 146.28 12.4771C145.559 13.7287 144.566 14.7131 143.302 15.4304C142.037 16.1325 140.618 16.4835 139.044 16.4835ZM139.044 13.8737C140.074 13.8737 141 13.6371 141.824 13.1639C142.647 12.6755 143.294 12.004 143.765 11.1493C144.235 10.2793 144.471 9.31015 144.471 8.24177C144.471 7.1734 144.235 6.21185 143.765 5.35715C143.294 4.48719 142.647 3.81564 141.824 3.3425C141 2.8541 140.074 2.6099 139.044 2.6099C138.015 2.6099 137.088 2.8541 136.265 3.3425C135.441 3.81564 134.794 4.48719 134.324 5.35715C133.853 6.21185 133.618 7.1734 133.618 8.24177C133.618 9.31015 133.853 10.2793 134.324 11.1493C134.794 12.004 135.441 12.6755 136.265 13.1639C137.088 13.6371 138.015 13.8737 139.044 13.8737Z" fill="#4D5866"/>
<path d="M167.76 0.228938V16.2546H165.4L156.885 5.40294V16.2546H154.04V0.228938H156.4L164.915 11.0806V0.228938H167.76Z" fill="#4D5866"/>
<path d="M189.258 0.228938V16.2546H186.898L178.383 5.40294V16.2546H175.538V0.228938H177.898L186.412 11.0806V0.228938H189.258Z" fill="#4D5866"/>
<path d="M208.616 13.7592V16.2546H197.035V0.228938H208.307V2.72436H199.903V6.89104H207.359V9.34068H199.903V13.7592H208.616Z" fill="#4D5866"/>
<path d="M222.535 16.4835C220.976 16.4835 219.564 16.1325 218.3 15.4304C217.05 14.7131 216.065 13.7287 215.344 12.4771C214.638 11.2256 214.285 9.81382 214.285 8.24177C214.285 6.66973 214.645 5.25795 215.366 4.00642C216.087 2.75489 217.072 1.77809 218.322 1.07601C219.587 0.35867 220.998 0 222.557 0C223.822 0 224.976 0.228938 226.02 0.686815C227.064 1.14469 227.947 1.80861 228.667 2.67858L226.814 4.48719C225.697 3.23566 224.322 2.6099 222.689 2.6099C221.631 2.6099 220.682 2.8541 219.844 3.3425C219.006 3.81564 218.351 4.47956 217.881 5.33426C217.41 6.18896 217.175 7.15813 217.175 8.24177C217.175 9.32541 217.41 10.2946 217.881 11.1493C218.351 12.004 219.006 12.6755 219.844 13.1639C220.682 13.6371 221.631 13.8737 222.689 13.8737C224.322 13.8737 225.697 13.2403 226.814 11.9735L228.667 13.805C227.947 14.6749 227.057 15.3389 225.998 15.7967C224.954 16.2546 223.8 16.4835 222.535 16.4835Z" fill="#4D5866"/>
<path d="M238.015 2.74726H232.897V0.228938H246V2.74726H240.882V16.2546H238.015V2.74726Z" fill="#4D5866"/>
</svg>
